<?xml version="1.0" encoding="utf-8"?>
<!-- Generator: Adobe Illustrator 24.3.0, SVG Export Plug-In . SVG Version: 6.00 Build 0)  -->
<svg version="1.1" id="Layer_1" xmlns="http://www.w3.org/2000/svg" xmlns:xlink="http://www.w3.org/1999/xlink" x="0px" y="0px"
	 viewBox="0 0 185.71 192.07" style="enable-background:new 0 0 185.71 192.07;" xml:space="preserve">
<style type="text/css">
	.st0{fill:#FFFFFF;}
</style>
<g id="e3gGRf_1_">
	<g>
		<path class="st0" d="M122.1,149.34c-18.15,0-36.31,0-54.46,0c-0.36-0.16-0.7-0.44-1.07-0.48c-15.66-1.62-26.64-13.67-27.06-29.59
			c-0.49-18.64-0.64-37.33,0.17-55.94c0.53-12.23,7.14-21.31,18.5-25.99c3.01-1.24,6.3-1.73,9.46-2.57c18.15,0,36.31,0,54.46,0
			c0.55,0.18,1.09,0.44,1.65,0.52c6.66,0.96,12.56,3.51,17.51,8.35c7.08,6.93,9.34,15.9,9.44,25.35
			c0.18,17.29,0.33,34.63-0.64,51.88c-0.7,12.45-7.37,21.61-19.11,26.08C128.1,148.03,125.05,148.56,122.1,149.34z M48.64,92.28
			c0.18,0,0.35,0,0.53,0.01c0,8-0.33,16.01,0.07,23.99c0.73,14.41,7.65,21.83,19.85,22.38c17.2,0.78,34.46,0.33,51.68,0.07
			c4.57-0.07,8.93-1.76,12.57-5c5.71-5.09,7.15-11.93,7.23-19.12c0.17-15.38,0.32-30.78-0.05-46.15
			c-0.32-13.24-6.35-22.35-19.89-22.98c-17.19-0.81-34.45-0.55-51.67-0.02C57.9,45.8,50.72,53.11,49.72,64.34
			C48.9,73.61,48.97,82.96,48.64,92.28z"/>
		<path class="st0" d="M95.2,62.47c16.05,0.25,28.62,13.45,28.56,30c-0.05,15.88-13.37,29.34-28.8,29.24
			c-15.72-0.1-28.89-12.47-28.98-29.93C65.91,75.43,79.3,62.23,95.2,62.47z M95.03,72.92c-9.38-0.37-18.51,7.21-18.92,18.82
			c-0.38,10.7,8.28,19.41,18.87,19.52c9.82,0.1,18.45-8.49,18.64-18.55C113.83,81.85,105.55,73.03,95.03,72.92z"/>
		<path class="st0" d="M124.72,68.06c-3.68,0-6.72-3.08-6.68-6.78c0.04-3.9,2.89-6.87,6.58-6.87c3.95,0.01,6.94,2.9,7.03,6.8
			C131.73,65.04,128.67,68.06,124.72,68.06z"/>
	</g>
</g>
</svg>
