<?xml version="1.0" encoding="utf-8"?>
<!-- Generator: Adobe Illustrator 24.3.0, SVG Export Plug-In . SVG Version: 6.00 Build 0)  -->
<svg version="1.1" id="Layer_1" xmlns="http://www.w3.org/2000/svg" xmlns:xlink="http://www.w3.org/1999/xlink" x="0px" y="0px"
	 viewBox="0 0 24.1 23.8" style="enable-background:new 0 0 24.1 23.8;" xml:space="preserve">
<style type="text/css">
	.st0{fill:#FFFFFF;}
</style>
<path class="st0" d="M21.1,2.8c-2.1,2.3-4,4.4-6,6.4c-0.7,0.7-0.7,1.1-0.1,1.9c2.2,3.1,4.4,6.2,6.8,9.5c-2.5,0-4.8,0-7,0
	c-0.4,0-0.8-0.6-1-1c-1.2-1.6-2.3-3.3-3.6-5c-1.5,1.6-3,3.2-4.5,4.8c-1.4,1.5-1.4,1.5-3.8,1.1c2.4-2.6,4.7-5,7.1-7.7
	C6.6,9.5,4.3,6.2,1.7,2.6c2.5,0,4.8,0,7,0c0.3,0,0.7,0.5,1,0.8C10.9,5,12,6.6,13.2,8.3c1.5-1.6,3-3,4.2-4.6
	C18.3,2.6,19.4,2.5,21.1,2.8z M17.7,18.4c-3-4.2-6-8.2-8.8-12.3C8.1,4.9,7.2,4.5,5.7,4.9C6.1,5.5,6.4,6,6.8,6.6
	c2.6,3.6,5.2,7.1,7.7,10.8C15.3,18.5,16.2,18.9,17.7,18.4z"/>
</svg>
