<?xml version="1.0" encoding="utf-8"?>
<!-- Generator: Adobe Illustrator 24.3.0, SVG Export Plug-In . SVG Version: 6.00 Build 0)  -->
<svg version="1.1" id="Layer_1" xmlns="http://www.w3.org/2000/svg" xmlns:xlink="http://www.w3.org/1999/xlink" x="0px" y="0px"
	 viewBox="0 0 9.4 7.3" style="enable-background:new 0 0 9.4 7.3;" xml:space="preserve">
<style type="text/css">
	.st0{fill:#FFFFFF;}
</style>
<path class="st0" d="M4.7,7c-1,0-2,0-3.1,0C0.7,7,0.3,6.5,0.3,5.6c0-1.2,0-2.5,0-3.7c0-1,0.4-1.3,1.4-1.3c2,0,4,0,6,0
	c0.9,0,1.3,0.4,1.3,1.3c0,1.3,0,2.5,0,3.8C9.1,6.5,8.6,7,7.8,7C6.8,7,5.7,7,4.7,7L4.7,7z M3.8,2.6C3.7,2.7,3.5,2.8,3.5,3
	c0,0.6-0.1,1.1,0,1.7c0,0.1,0.3,0.3,0.4,0.3C4.6,4.6,5.1,4.4,5.6,4C5.7,4,5.8,3.7,5.7,3.7C5.1,3.3,4.5,3,3.8,2.6z"/>
</svg>
