<?xml version="1.0" encoding="utf-8"?>
<!-- Generator: Adobe Illustrator 24.3.0, SVG Export Plug-In . SVG Version: 6.00 Build 0)  -->
<svg version="1.1" id="Layer_1" xmlns="http://www.w3.org/2000/svg" xmlns:xlink="http://www.w3.org/1999/xlink" x="0px" y="0px"
	 viewBox="0 0 297.64 299.67" style="enable-background:new 0 0 297.64 299.67;" xml:space="preserve">
<style type="text/css">
	.st0{fill:#FFFFFF;}
</style>
<path class="st0" d="M269.25,142.63c0.04,66.56-51.85,116.72-120.6,116.6c-62.22-0.12-113.74-53.38-113.71-117.55
	C34.97,77.76,87.34,24.88,150.64,24.86C217.71,24.83,269.21,75.96,269.25,142.63z M155.34,126.64c0-8.25-0.05-14.82,0.01-21.4
	c0.09-8.84,4.49-13.5,13.45-13.6c4.17-0.05,8.47,0.54,12.45-0.33c2.35-0.51,5.56-2.99,6.07-5.14c4.26-17.78,0.67-22.14-17.33-22.08
	c-1.04,0-2.08,0.01-3.12,0.01c-26.65,0.07-39.49,12.91-39.61,39.62c-0.04,7.46-0.01,14.92-0.01,19.94
	c-7.91,7.36-21.46-4.84-22.82,11.16c-0.46,5.44-1.41,14.16,1.3,15.85c5.81,3.61,13.87,3.62,21.97,5.31c0,20.54,0,41.27,0,62.15
	c3.94,0.8,6.95,1.56,10.02,2.01c16.9,2.47,18.02,1.33,17.79-15.45c-0.23-16.53-0.05-33.07-0.05-50.59c5.46,0,9.55,0.01,13.65,0
	c16.78-0.04,17.74-1.26,18.48-18.22c0.31-6.97-2.43-9.46-9-9.28C171.36,126.8,164.12,126.64,155.34,126.64z"/>
</svg>
